<?xml version="1.0" standalone="no"?>
<!DOCTYPE svg PUBLIC "-//W3C//DTD SVG 20010904//EN"
 "http://www.w3.org/TR/2001/REC-SVG-20010904/DTD/svg10.dtd">
<svg version="1.0" xmlns="http://www.w3.org/2000/svg"
 width="1280.000000pt" height="940.000000pt" viewBox="0 0 1280.000000 940.000000"
 preserveAspectRatio="xMidYMid meet">
<metadata>
Created by potrace 1.15, written by Peter Selinger 2001-2017
</metadata>
<g transform="translate(0.000000,940.000000) scale(0.100000,-0.100000)"
fill="#ffffff" stroke="none">
<path d="M3260 9389 c-63 -5 -139 -12 -169 -16 l-55 -8 61 -70 c33 -39 111
-126 173 -195 461 -509 727 -813 742 -846 6 -12 22 -27 35 -33 24 -11 25 -15
19 -67 -8 -66 -14 -55 214 -354 86 -113 160 -210 163 -217 5 -7 -9 -22 -38
-38 -25 -15 -42 -31 -39 -36 3 -5 38 -9 78 -9 l73 0 301 -394 c166 -217 305
-401 308 -410 4 -10 -7 -21 -35 -36 -60 -30 -53 -44 17 -37 43 5 64 2 79 -8
12 -8 84 -92 161 -187 141 -174 166 -198 201 -198 27 0 39 -17 111 -163 l65
-132 48 2 c26 2 47 -1 47 -7 0 -5 -38 -41 -84 -79 -47 -39 -88 -80 -91 -92
-13 -39 18 -143 139 -469 l53 -145 -41 -18 c-50 -22 -578 -199 -1141 -382
-951 -309 -1165 -385 -1759 -622 l-390 -156 -125 23 c-436 77 -654 126 -720
159 -20 11 -252 143 -516 295 -264 152 -540 307 -613 344 l-133 67 -172 -59
c-95 -32 -185 -65 -200 -73 l-28 -14 49 -57 c28 -31 267 -298 532 -592 495
-549 630 -704 630 -720 0 -13 -72 -54 -275 -157 -93 -47 -172 -87 -174 -89 -7
-6 37 -119 46 -117 5 1 123 5 261 9 l252 7 0 -62 c0 -76 -34 -411 -101 -1004
-28 -247 -48 -451 -46 -454 9 -8 288 57 332 77 108 50 122 73 635 1010 161
294 296 538 299 542 4 5 198 37 431 73 1138 176 1304 211 1887 399 650 210
660 213 858 231 88 9 198 20 245 26 82 10 437 74 473 85 23 7 22 -24 -3 -100
-35 -104 -26 -176 71 -587 27 -118 53 -227 56 -242 6 -28 6 -28 34 22 28 49
46 68 55 58 3 -3 -1 -18 -10 -35 -17 -32 -13 -42 17 -42 17 0 18 -5 13 -34 -4
-19 -3 -37 1 -39 4 -3 32 0 60 6 29 6 55 8 59 4 4 -3 -14 -29 -38 -56 -57 -63
-79 -122 -123 -329 -46 -216 -58 -252 -100 -292 -44 -43 -44 -53 0 -44 34 6
35 5 30 -22 -2 -16 -16 -103 -30 -194 -31 -199 -71 -400 -90 -457 -8 -24 -28
-61 -45 -84 -38 -53 -38 -62 0 -54 27 6 30 4 30 -18 0 -14 -11 -77 -25 -141
-14 -64 -25 -139 -25 -168 0 -88 -53 -320 -217 -961 -14 -54 -23 -100 -21
-103 3 -2 92 32 198 77 164 69 198 80 230 75 32 -5 40 -2 52 17 63 95 858
1623 1328 2552 128 253 242 472 252 487 23 34 37 35 72 7 25 -20 35 -21 121
-15 88 7 97 6 150 -19 l56 -27 152 21 c216 31 450 101 640 191 134 63 164 107
142 210 -35 165 -89 343 -118 384 -20 28 -21 29 -101 23 -138 -9 -455 -110
-681 -217 -146 -70 -185 -81 -185 -56 0 14 311 637 421 844 l34 63 -34 28
c-34 28 -35 29 -18 54 30 46 148 127 272 187 185 90 405 165 1458 495 275 86
556 179 625 206 367 146 949 410 1091 494 282 168 611 477 611 575 0 49 -71
89 -223 124 -188 44 -271 51 -632 51 -300 0 -360 -3 -510 -23 -449 -62 -726
-133 -1635 -424 -206 -66 -474 -151 -595 -189 -121 -39 -281 -90 -355 -114
-74 -24 -211 -66 -303 -94 l-168 -51 -50 25 c-72 37 -312 200 -367 250 -31 29
-44 47 -37 53 6 6 82 29 170 52 263 68 439 134 481 181 l22 24 -60 255 c-32
140 -65 261 -71 269 -17 20 -196 8 -322 -23 -167 -41 -605 -200 -673 -244 -13
-8 -30 -28 -38 -43 -16 -31 -80 -69 -116 -69 -15 0 -101 57 -223 148 -110 82
-809 595 -1554 1141 -745 547 -1485 1090 -1644 1209 -224 167 -298 217 -330
223 -50 10 -152 9 -307 -2z"/>
</g>
</svg>
